<svg xmlns="http://www.w3.org/2000/svg" width="24" height="25" viewBox="0 0 24 25" fill="none">
  <path d="M4.58341 17.8211C3.55316 16.7275 3 15.5 3 13.5104C3 10.0109 5.45651 6.87372 9.03059 5.32324L9.92328 6.70085C6.58804 8.50545 5.93618 10.8461 5.67564 12.3221C6.21263 12.0444 6.91558 11.9467 7.60471 12.0106C9.40908 12.1778 10.8312 13.6591 10.8312 15.5C10.8312 17.433 9.26416 19 7.33116 19C6.2581 19 5.23196 18.5096 4.58341 17.8211ZM14.5834 17.8211C13.5532 16.7275 13 15.5 13 13.5104C13 10.0109 15.4565 6.87372 19.0306 5.32324L19.9233 6.70085C16.588 8.50545 15.9362 10.8461 15.6756 12.3221C16.2126 12.0444 16.9156 11.9467 17.6047 12.0106C19.4091 12.1778 20.8312 13.6591 20.8312 15.5C20.8312 17.433 19.2642 19 17.3312 19C16.2581 19 15.232 18.5096 14.5834 17.8211Z" fill="black"/>
</svg>